<?xml version="1.0" encoding="UTF-8"?>
<svg xmlns="http://www.w3.org/2000/svg" xmlns:xlink="http://www.w3.org/1999/xlink" width="148pt" height="147pt" viewBox="0 0 148 147" version="1.1">
<g id="surface1">
<path style=" stroke:none;fill-rule:nonzero;fill:rgb(0%,0%,0%);fill-opacity:1;" d="M 14.730469 9.453125 L 42.429688 9.453125 L 42.429688 18.660156 L 25.296875 18.660156 L 25.296875 27.121094 L 40.652344 27.121094 L 40.652344 36.328125 L 25.296875 36.328125 L 25.296875 54.742188 L 14.730469 54.742188 Z M 14.730469 9.453125 "/>
<path style=" stroke:none;fill-rule:nonzero;fill:rgb(0%,0%,0%);fill-opacity:1;" d="M 118.207031 51.628906 L 117.386719 50.582031 C 115.566406 51.75 113.757812 52.382812 111.15625 52.382812 C 108.265625 52.382812 105.878906 51.4375 104.078125 49.535156 C 102.269531 47.640625 101.367188 45.402344 101.367188 42.8125 C 101.367188 40.746094 101.816406 38.921875 102.726562 37.339844 C 103.632812 35.753906 104.929688 34.53125 106.621094 33.667969 C 108.308594 32.804688 110.230469 32.367188 112.390625 32.367188 C 113.753906 32.367188 115.042969 32.671875 116.246094 33.292969 C 116.285156 33.316406 116.339844 33.339844 116.378906 33.363281 L 116.378906 32.613281 L 125.910156 32.613281 L 125.910156 51.984375 L 118.207031 51.984375 Z M 117.546875 42.507812 C 117.546875 40.988281 117.023438 39.761719 115.980469 38.828125 C 114.941406 37.886719 113.628906 37.421875 112.054688 37.421875 C 110.980469 37.421875 110.042969 37.675781 109.246094 38.195312 C 108.449219 38.710938 107.847656 39.417969 107.449219 40.3125 C 107.046875 41.210938 106.847656 42.207031 106.847656 43.304688 C 106.847656 45.066406 107.414062 46.492188 108.546875 47.59375 C 109.683594 48.691406 111.207031 49.242188 113.125 49.242188 C 114.605469 49.242188 115.980469 48.734375 117.042969 47.710938 C 117.378906 47.410156 117.546875 47.171875 117.546875 46.996094 Z M 117.546875 42.507812 "/>
<path style=" stroke:none;fill-rule:nonzero;fill:rgb(0%,0%,0%);fill-opacity:1;" d="M 144.914062 51.984375 L 134.027344 51.984375 L 125.753906 32.625 L 136.347656 32.625 L 140.683594 45.0625 L 144.804688 32.625 L 155.03125 32.625 Z M 144.914062 51.984375 "/>
<path style=" stroke:none;fill-rule:nonzero;fill:rgb(0%,0%,0%);fill-opacity:1;" d="M 43.488281 32.613281 L 53.847656 32.613281 L 53.847656 51.984375 L 43.488281 51.984375 Z M 48.667969 27.21875 C 47.320312 27.21875 46.183594 26.78125 45.25 25.902344 C 44.320312 25.027344 43.855469 23.964844 43.855469 22.726562 C 43.855469 21.480469 44.320312 20.425781 45.25 19.554688 C 46.183594 18.683594 47.320312 18.25 48.667969 18.25 C 50.011719 18.25 51.152344 18.683594 52.085938 19.554688 C 53.015625 20.425781 53.480469 21.480469 53.480469 22.726562 C 53.480469 23.964844 53.015625 25.027344 52.085938 25.902344 C 51.152344 26.78125 50.011719 27.21875 48.667969 27.21875 Z M 48.667969 27.21875 "/>
<path style=" stroke:none;fill-rule:nonzero;fill:rgb(0%,0%,0%);fill-opacity:1;" d="M 72.820312 42.347656 C 72.820312 40.894531 72.3125 39.730469 71.308594 38.839844 C 70.300781 37.953125 68.988281 37.503906 67.359375 37.503906 C 65.839844 37.503906 64.535156 37.929688 63.445312 38.777344 C 62.351562 39.628906 61.808594 40.738281 61.808594 42.101562 C 61.808594 43.671875 62.609375 44.765625 64.214844 45.386719 C 65.058594 45.710938 66.160156 45.988281 67.542969 46.226562 C 68.921875 46.460938 70.5 46.761719 72.261719 47.117188 C 73.96875 47.457031 75.515625 47.945312 76.90625 48.585938 C 79.125 49.703125 80.78125 51.246094 81.882812 53.226562 C 82.980469 55.207031 83.53125 57.421875 83.53125 59.863281 C 83.53125 62.835938 82.730469 65.339844 81.128906 67.386719 C 79.527344 69.4375 77.503906 70.90625 75.0625 71.800781 C 72.617188 72.699219 70.066406 73.144531 67.410156 73.144531 C 64.195312 73.144531 61.15625 72.5 58.300781 71.207031 C 55.449219 69.914062 53.367188 67.859375 52.050781 65.039062 C 50.75 62.246094 50.09375 58.933594 50.09375 55.105469 L 59.777344 55.105469 C 59.859375 56.785156 60.269531 58.136719 61.015625 59.15625 C 61.761719 60.171875 62.632812 60.878906 63.628906 61.285156 C 64.621094 61.6875 65.730469 61.890625 66.945312 61.890625 C 68.566406 61.890625 69.957031 61.546875 71.125 60.859375 C 72.296875 60.171875 72.882812 59.011719 72.882812 57.378906 C 72.882812 56.058594 72.328125 55.035156 71.226562 54.3125 C 70.121094 53.589844 68.574219 53.035156 66.578125 52.648438 C 64.585938 52.265625 62.363281 51.738281 59.914062 51.070312 C 57.464844 50.402344 55.5625 49.421875 54.207031 48.125 C 52.851562 46.828125 52.171875 44.9375 52.171875 42.449219 C 52.171875 39.503906 52.914062 37.09375 54.410156 35.210938 C 55.90625 33.328125 57.800781 31.992188 60.101562 31.207031 C 62.402344 30.421875 64.816406 30.027344 67.351562 30.027344 C 70.480469 30.027344 73.1875 30.636719 75.476562 31.855469 C 77.765625 33.074219 79.4375 34.738281 80.496094 36.84375 C 81.554688 38.949219 82.09375 41.207031 82.117188 43.621094 L 72.820312 43.621094 Z M 72.820312 42.347656 "/>
<path style=" stroke:none;fill-rule:nonzero;fill:rgb(0%,0%,0%);fill-opacity:1;" d="M 91.246094 78.945312 L 81.742188 78.945312 L 81.742188 32.613281 L 91.246094 32.613281 Z M 86.0625 27.21875 C 85.160156 27.21875 84.34375 26.9375 83.617188 26.371094 C 82.890625 25.800781 82.527344 24.9375 82.527344 23.773438 C 82.527344 22.609375 82.890625 21.742188 83.617188 21.175781 C 84.34375 20.609375 85.160156 20.328125 86.0625 20.328125 C 86.964844 20.328125 87.78125 20.609375 88.507812 21.175781 C 89.230469 21.742188 89.59375 22.609375 89.59375 23.773438 C 89.59375 24.9375 89.230469 25.800781 88.507812 26.371094 C 87.78125 26.9375 86.964844 27.21875 86.0625 27.21875 Z M 86.0625 27.21875 "/>
<path style=" stroke:none;fill-rule:nonzero;fill:rgb(0%,0%,0%);fill-opacity:1;" d="M 63.167969 83.519531 L 63.167969 83.59375 L 62.953125 83.707031 C 58.21875 86.542969 54.84375 91.695312 54.84375 97.628906 C 54.84375 103.484375 58.144531 108.578125 62.78125 111.4375 L 63.167969 111.671875 L 63.167969 128.230469 L 62.980469 128.183594 C 53.316406 125.632812 46.113281 114.589844 45.984375 101.4375 C 45.976562 100.734375 45.984375 100.039062 46.007812 99.339844 C 46.625 86.0625 54.144531 75.15625 63.980469 72.804688 L 64.167969 72.757812 L 63.167969 83.519531 "/>
<path style=" stroke:none;fill-rule:nonzero;fill:rgb(0%,0%,0%);fill-opacity:1;" d="M 96.628906 128.289062 L 96.4375 128.230469 L 96.4375 111.671875 L 96.835938 111.4375 C 101.472656 108.578125 104.773438 103.484375 104.773438 97.628906 C 104.773438 91.695312 101.394531 86.542969 96.664062 83.707031 L 96.449219 83.59375 L 96.449219 83.519531 L 95.449219 72.757812 L 95.636719 72.804688 C 105.472656 75.15625 112.992188 86.0625 113.613281 99.339844 C 113.632812 100.039062 113.644531 100.734375 113.632812 101.4375 C 113.503906 114.589844 106.300781 125.632812 96.628906 128.289062 "/>
<path style=" stroke:none;fill-rule:nonzero;fill:rgb(0%,0%,0%);fill-opacity:1;" d="M 71.402344 113.972656 L 71.402344 120.640625 L 88.1875 120.640625 L 88.1875 113.972656 Z M 71.402344 113.972656 "/>
<path style=" stroke:none;fill-rule:nonzero;fill:rgb(0%,0%,0%);fill-opacity:1;" d="M 71.402344 74.566406 L 71.402344 81.238281 L 88.1875 81.238281 L 88.1875 74.566406 Z M 71.402344 74.566406 "/>
<path style=" stroke:none;fill-rule:nonzero;fill:rgb(0%,0%,0%);fill-opacity:1;" d="M 71.445312 94.292969 L 71.445312 100.964844 L 88.230469 100.964844 L 88.230469 94.292969 Z M 71.445312 94.292969 "/>
</g>
</svg>